<?xml version="1.0" standalone="no"?>
<!DOCTYPE svg PUBLIC "-//W3C//DTD SVG 20010904//EN"
 "http://www.w3.org/TR/2001/REC-SVG-20010904/DTD/svg10.dtd">
<svg version="1.0" xmlns="http://www.w3.org/2000/svg"
 width="700.000000pt" height="700.000000pt" viewBox="0 0 700.000000 700.000000"
 preserveAspectRatio="xMidYMid meet">
<metadata>
Created by potrace 1.14, written by Peter Selinger 2001-2017
</metadata>
<g transform="translate(0.000000,700.000000) scale(0.100000,-0.100000)"
fill="#000000" stroke="none">
<path d="M2461 3878 c0 -1038 0 -1026 -57 -1109 -35 -51 -110 -89 -176 -91
-146 -3 -227 61 -262 210 -17 74 -16 69 -16 85 0 10 -77 12 -362 12 l-363 0 3
-75 c13 -365 199 -621 537 -738 33 -12 71 -23 85 -26 14 -3 36 -7 50 -10 72
-16 128 -21 260 -21 167 0 223 7 346 40 351 94 588 335 662 675 3 14 7 469 9
1013 l4 987 -360 0 -360 0 0 -952z"/>
<path d="M3525 3498 c0 -733 3 -1337 7 -1343 7 -11 1286 -12 1404 -1 70 7 92
10 146 22 15 3 29 5 30 5 2 -1 35 9 73 22 136 46 257 119 342 204 50 51 113
134 113 149 0 4 6 15 13 23 12 14 48 99 53 126 1 6 7 30 13 55 15 64 13 223
-3 301 -55 258 -278 450 -563 483 -15 2 -31 4 -35 5 -26 4 1 22 60 41 187 61
311 160 386 306 40 80 57 146 61 247 9 248 -118 458 -345 570 -86 42 -216 83
-325 103 -22 4 -353 9 -735 11 l-695 4 0 -1333z m1200 729 c33 -16 71 -38 83
-50 86 -80 91 -239 12 -330 -73 -82 -154 -103 -405 -102 l-160 1 -1 249 c0
138 1 254 4 259 2 4 95 6 206 4 195 -3 203 -4 261 -31z m35 -956 c122 -38 187
-118 197 -241 8 -99 -9 -154 -68 -211 -76 -74 -112 -82 -395 -87 l-240 -4 0
279 c0 153 4 281 8 284 5 3 104 4 221 3 182 -2 221 -5 277 -23z"/>
</g>
</svg>
